<?xml version="1.0" standalone="no"?>
<!DOCTYPE svg PUBLIC "-//W3C//DTD SVG 20010904//EN"
 "http://www.w3.org/TR/2001/REC-SVG-20010904/DTD/svg10.dtd">
<svg version="1.0" xmlns="http://www.w3.org/2000/svg"
 width="250.000000pt" height="250.000000pt" viewBox="0 0 250.000000 250.000000"
 preserveAspectRatio="xMidYMid meet">
<metadata>
Created by potrace 1.11, written by Peter Selinger 2001-2013
</metadata>
<g transform="translate(0.000000,250.000000) scale(0.100000,-0.100000)"
fill="#000000" stroke="none">
<path d="M0 1250 l0 -1250 1250 0 1250 0 0 1250 0 1250 -1250 0 -1250 0 0
-1250z m448 900 c72 -42 72 -43 92 -109 l21 -67 265 -264 264 -264 -30 -31
-30 -30 -268 267 c-265 265 -267 267 -329 284 l-63 17 -55 95 -56 96 38 38
c33 34 39 36 57 25 12 -8 54 -33 94 -57z m1434 52 c4 -4 -78 -93 -182 -197
l-190 -189 31 -116 c17 -63 37 -120 43 -126 6 -7 65 -26 130 -42 l119 -31 198
190 198 190 7 -47 c44 -295 -172 -544 -470 -544 -46 0 -105 7 -132 15 l-49 15
-65 -65 -64 -65 33 -34 c25 -26 63 -45 152 -78 l119 -43 220 -221 220 -220 0
-47 c0 -47 -2 -50 -92 -143 -122 -126 -160 -145 -226 -110 -15 8 -118 106
-228 218 l-202 203 -47 126 c-35 95 -55 135 -81 160 l-34 33 -232 -230 c-128
-126 -299 -294 -381 -374 l-147 -145 -130 130 -130 130 357 350 c303 296 358
354 361 381 2 25 24 52 102 129 83 81 103 96 123 91 18 -4 32 4 66 37 l42 43
-16 59 c-55 213 50 437 251 532 40 19 94 38 121 43 53 10 193 4 205 -8z"/>
<path d="M1336 1471 c-50 -50 -76 -83 -71 -91 5 -8 35 15 91 71 46 46 84 87
84 91 0 23 -34 0 -104 -71z"/>
<path d="M1396 1411 c-50 -50 -76 -83 -71 -91 5 -8 35 15 91 71 46 46 84 87
84 91 0 23 -34 0 -104 -71z"/>
<path d="M1460 1351 c-58 -54 -82 -83 -75 -90 12 -12 175 132 175 155 0 24
-12 16 -100 -65z"/>
<path d="M802 952 c-246 -242 -312 -314 -272 -300 5 2 138 128 295 281 248
243 299 299 267 296 -4 0 -134 -125 -290 -277z"/>
<path d="M1139 1163 c-2 -4 -128 -129 -279 -277 -151 -149 -276 -276 -278
-283 -2 -7 1 -13 7 -13 13 0 576 551 576 564 0 12 -22 20 -26 9z"/>
<path d="M927 829 c-158 -154 -287 -285 -287 -290 0 -27 50 17 310 271 194
191 282 282 275 289 -7 7 -102 -78 -298 -270z"/>
</g>
</svg>
