<?xml version="1.0" standalone="no"?>
<!DOCTYPE svg PUBLIC "-//W3C//DTD SVG 20010904//EN"
 "http://www.w3.org/TR/2001/REC-SVG-20010904/DTD/svg10.dtd">
<svg version="1.0" xmlns="http://www.w3.org/2000/svg"
 width="16.000000pt" height="16.000000pt" viewBox="0 0 16.000000 16.000000"
 preserveAspectRatio="xMidYMid meet">
<metadata>
Created by potrace 1.11, written by Peter Selinger 2001-2013
</metadata>
<g transform="translate(0.000000,16.000000) scale(0.003200,-0.003200)"
fill="#000000" stroke="none">
<path d="M0 2500 l0 -2500 2500 0 2500 0 0 2500 0 2500 -2500 0 -2500 0 0
-2500z m2897 1474 c281 -41 507 -151 706 -343 85 -82 177 -190 177 -208 0 -4
-66 -45 -147 -90 l-148 -82 -20 27 c-39 53 -131 145 -195 193 -269 202 -625
252 -961 134 -210 -73 -398 -221 -525 -410 -281 -423 -263 -1049 41 -1445 344
-447 985 -552 1430 -235 58 42 171 152 210 207 l20 27 145 -79 c80 -44 150
-81 155 -83 16 -6 -67 -107 -173 -209 -271 -263 -589 -380 -992 -365 -383 15
-702 146 -961 395 -159 152 -264 307 -339 499 -187 478 -132 1047 142 1458 68
102 219 259 328 341 143 109 361 206 553 249 168 37 384 45 554 19z"/>
</g>
</svg>
